{"title":"Smallville S10E13 PROPER HDTV XviD-2HD {TheCloon}","uid":6169904,"size":367274962,"categoryP":"video","categoryS":"tv_shows","magnet":"?xt=urn:btih:224ee6a94d8a5a7486d27bac6326e6782bff6213&amp;dn=Smallville+S10E13+PROPER+HDTV+XviD-2HD+%7BTheCloon%7D&amp;tr=udp%3A%2F%2Ftracker.openbittorrent.com%3A80&amp;tr=udp%3A%2F%2Fopen.demonii.com%3A1337&amp;tr=udp%3A%2F%2Ftracker.coppersurfer.tk%3A6969&amp;tr=udp%3A%2F%2Fexodus.desync.com%3A6969","seeders":1,"leechers":0,"uploader":"TheCloon","files":4,"time":1297529547,"description":"###\n\nSmallville S10E13 PROPER HDTV XviD-2HD\n\n###\n\nPlot:\n\n208: 10x13 -- Beacon (Feb/11/2011)\nClark is surprised to see Martha on the news speaking at a pro-vigilante rally. However, surprise quickly turns to horror when he and Lois watch as Martha gets shot on national television. Meanwhile, Lionel reveals himself to the world and reclaims LuthorCorp from Tess and Oliver. Lois and Chloe decide to cheer Clark up by showing him videos from thousands of vigilante supporters professing their support for the Blur. \n\n###\n\n[code]\nFormat                           : AVI\nFormat/Info                      : Audio Video Interleave\nFile size                        : 350 MiB\nDuration                         : 41mn 43s\nOverall bit rate                 : 1 173 Kbps\nWriting application              : MEncoder SVN-r32669-4.3.2\nWriting library                  : MPlayer\n\nVideo\nID                               : 0\nFormat                           : MPEG-4 Visual\nFormat profile                   : Advanced Simple@L5\nFormat settings, BVOP            : 1\nFormat settings, QPel            : No\nFormat settings, GMC             : No warppoints\nFormat settings, Matrix          : Default (H.263)\nCodec ID                         : XVID\nCodec ID/Hint                    : XviD\nDuration                         : 41mn 43s\nBit rate                         : 1 032 Kbps\nWidth                            : 624 pixels\nHeight                           : 352 pixels\nDisplay aspect ratio             : 16:9\nFrame rate                       : 23.976 fps\nColor space                      : YUV\nChroma subsampling               : 4:2:0\nBit depth                        : 8 bits\nScan type                        : Progressive\nCompression mode                 : Lossy\nBits/(Pixel*Frame)               : 0.196\nStream size                      : 308 MiB (88%)\nWriting library                  : XviD 1.2.1 (UTC 2008-12-04)\n\nAudio\nID                               : 1\nFormat                           : MPEG Audio\nFormat version                   : Version 1\nFormat profile                   : Layer 3\nMode                             : Joint stereo\nMode extension                   : MS Stereo\nCodec ID                         : 55\nCodec ID/Hint                    : MP3\nDuration                         : 41mn 43s\nBit rate mode                    : Variable\nBit rate                         : 128 Kbps\nChannel(s)                       : 2 channels\nSampling rate                    : 48.0 KHz\nCompression mode                 : Lossy\nStream size                      : 38.5 MiB (11%)\nAlignment                        : Aligned on interleaves\nInterleave, duration             : 24 ms (0.58 video frame)\nInterleave, preload duration     : 475 ms\n[/code]\n\n","torrent":{"xt":"urn:btih:224ee6a94d8a5a7486d27bac6326e6782bff6213","amp;dn":"Smallville+S10E13+PROPER+HDTV+XviD-2HD+%7BTheCloon%7D","amp;tr":["udp%3A%2F%2Ftracker.openbittorrent.com%3A80","udp%3A%2F%2Fopen.demonii.com%3A1337","udp%3A%2F%2Ftracker.coppersurfer.tk%3A6969","udp%3A%2F%2Fexodus.desync.com%3A6969"],"infoHash":"224ee6a94d8a5a7486d27bac6326e6782bff6213","infoHashBuffer":{"type":"Buffer","data":[34,78,230,169,77,138,90,116,134,210,123,172,99,38,230,120,43,255,98,19]},"announce":[],"urlList":[]}}